<?xml version="1.0" standalone="no"?><!DOCTYPE svg PUBLIC "-//W3C//DTD SVG 1.1//EN" "http://www.w3.org/Graphics/SVG/1.1/DTD/svg11.dtd"><svg t="1575692248324" class="icon" viewBox="0 0 1024 1024" version="1.1" xmlns="http://www.w3.org/2000/svg" p-id="25203" xmlns:xlink="http://www.w3.org/1999/xlink" width="200" height="200"><defs><style type="text/css"></style></defs><path d="M512 0C230.4 0 0 230.4 0 512s230.4 512 512 512 512-230.4 512-512S793.6 0 512 0z m-147.911111 813.511111l-71.111111-17.066667 2.844444-14.222222c25.6-99.555556 76.8-187.733333 147.911111-258.844444-22.755556-36.977778-19.911111-85.333333 8.533334-119.466667 34.133333-36.977778 88.177778-45.511111 130.844444-17.066667 42.666667 28.444444 56.888889 82.488889 34.133333 128-19.911111 42.666667-68.266667 62.577778-113.777777 54.044445-68.266667 62.577778-116.622222 142.222222-139.377778 233.244444v11.377778zM768 605.866667c-48.355556 85.333333-139.377778 136.533333-236.088889 136.533333-14.222222 0-28.444444 0-45.511111-2.844444l-14.222222-2.844445 11.377778-71.111111 14.222222 2.844444c85.333333 14.222222 170.666667-28.444444 210.488889-105.244444 39.822222-76.8 25.6-170.666667-36.977778-230.4-65.422222-65.422222-170.666667-76.8-250.311111-25.6-79.644444 51.2-110.933333 153.6-73.955556 241.777778l5.688889 14.222222-68.266667 28.444444-5.688888-14.222222c-14.222222-31.288889-19.911111-68.266667-19.911112-102.4 0-113.777778 71.111111-216.177778 179.2-256 108.088889-39.822222 227.555556-8.533333 301.511112 79.644445 73.955556 82.488889 85.333333 207.644444 28.444444 307.2z" fill="#81812a" p-id="25204"></path></svg>