<?xml version="1.0" standalone="no"?><!DOCTYPE svg PUBLIC "-//W3C//DTD SVG 1.1//EN" "http://www.w3.org/Graphics/SVG/1.1/DTD/svg11.dtd"><svg class="icon" width="200px" height="200.00px" viewBox="0 0 1024 1024" version="1.1" xmlns="http://www.w3.org/2000/svg"><path d="M642.554414 542.643392c92.568579-47.880299 155.770574-144.279302 155.770574-255.361596 0-158.32419-128.957606-287.281796-287.281796-287.281796S223.761397 128.957606 223.761397 287.281796c0 111.082294 63.201995 207.481297 155.770573 255.361596C165.666633 600.099751 6.065636 792.897756 0.958404 1024h51.072319c7.022444-247.700748 210.034913-446.882793 459.012469-446.882793s452.628429 199.182045 459.012469 446.882793h51.072319c-5.107232-231.102244-164.708229-423.900249-378.573566-481.356608zM274.833716 287.281796c0-130.234414 105.975062-236.209476 236.209476-236.209477s236.209476 105.975062 236.209476 236.209477-105.975062 236.209476-236.209476 236.209476-236.209476-105.975062-236.209476-236.209476z" fill="#707070" /></svg>