<?xml version="1.0" standalone="no"?><!DOCTYPE svg PUBLIC "-//W3C//DTD SVG 1.1//EN" "http://www.w3.org/Graphics/SVG/1.1/DTD/svg11.dtd"><svg t="1576073276757" class="icon" viewBox="0 0 1024 1024" version="1.1" xmlns="http://www.w3.org/2000/svg" p-id="1858" xmlns:xlink="http://www.w3.org/1999/xlink" width="200" height="200"><defs><style type="text/css"></style></defs><path d="M1023.304101 513.327653a498.10285 498.10285 0 0 1-98.071306 301.37561 506.360717 506.360717 0 0 1-252.339956 185.363538 28.17175 28.17175 0 0 1-26.30825-4.78664 27.112112 27.112112 0 0 1-8.367484-19.731186v-140.529898a117.327483 117.327483 0 0 0-34.675734-94.490461 411.68756 411.68756 0 0 0 68.182212-11.94833 251.645711 251.645711 0 0 0 62.920562-26.162092 187.22704 187.22704 0 0 0 53.822293-44.249014 201.51388 201.51388 0 0 0 35.296901-69.972635 342.88418 342.88418 0 0 0 13.738753-100.446356 193.91372 193.91372 0 0 0-52.616499-137.53368 175.388327 175.388327 0 0 0-5.371267-136.327886 84.405633 84.405633 0 0 0-53.822293 7.307847 369.996293 369.996293 0 0 0-61.60515 29.231388l-25.102454 16.150342a480.819792 480.819792 0 0 0-255.774645 0c-7.307847-4.78664-16.73497-10.779074-28.098671-17.940764a434.816895 434.816895 0 0 0-55.612716-25.577465 90.72692 90.72692 0 0 0-57.403138-8.952112 180.723056 180.723056 0 0 0-5.115493 135.962493 193.91372 193.91372 0 0 0-52.616498 137.53368 335.868647 335.868647 0 0 0 13.738752 99.861729 212.841043 212.841043 0 0 0 35.296901 69.972635 179.699957 179.699957 0 0 0 53.822293 44.979798 276.236616 276.236616 0 0 0 62.774406 26.308249 423.160879 423.160879 0 0 0 68.182212 11.94833 108.631145 108.631145 0 0 0-32.885311 68.76684 159.895692 159.895692 0 0 1-29.889094 10.157907 177.142211 177.142211 0 0 1-38.256579 3.653923 78.961287 78.961287 0 0 1-43.664386-14.359919 116.158228 116.158228 0 0 1-37.087324-41.873963 105.744546 105.744546 0 0 0-32.300683-34.675734 96.280884 96.280884 0 0 0-32.885312-16.150342l-13.154124-1.790422a44.724024 44.724024 0 0 0-19.000402 2.630825 5.919356 5.919356 0 0 0-3.653924 7.782857 60.618591 60.618591 0 0 0 5.992435 9.573279 28.135211 28.135211 0 0 0 8.952112 7.782857l4.78664 3.653924a84.405633 84.405633 0 0 1 29.231388 25.102454 159.237986 159.237986 0 0 1 20.936982 34.091106l6.577062 15.529175a88.936498 88.936498 0 0 0 29.231388 41.252796 100.555974 100.555974 0 0 0 44.833641 19.731187 324.870337 324.870337 0 0 0 46.624064 4.78664 213.316053 213.316053 0 0 0 37.087323-2.37505l15.529175-2.375051c0 16.73497 0 36.539235 0.584628 59.193561 0 22.727404 0.584628 34.675734 0.584627 35.881529a24.700523 24.700523 0 0 1-8.952112 19.731186 31.752595 31.752595 0 0 1-26.892877 4.78664 500.331743 500.331743 0 0 1-252.339956-185.363538 498.10285 498.10285 0 0 1-97.961689-301.302531 497.518222 497.518222 0 0 1 68.76684-257.126596 510.52619 510.52619 0 0 1 184.778911-187.738589 500.587518 500.587518 0 0 1 257.090057-68.76684 497.518222 497.518222 0 0 1 257.126596 68.76684 516.701321 516.701321 0 0 1 186.569333 186.569333 499.05287 499.05287 0 0 1 68.76684 257.126596z" fill="#009A61" p-id="1859"></path></svg>