<?xml version="1.0" standalone="no"?><!DOCTYPE svg PUBLIC "-//W3C//DTD SVG 1.1//EN" "http://www.w3.org/Graphics/SVG/1.1/DTD/svg11.dtd"><svg t="1573545494538" class="icon" viewBox="0 0 1024 1024" version="1.1" xmlns="http://www.w3.org/2000/svg" p-id="11754" xmlns:xlink="http://www.w3.org/1999/xlink" width="200" height="200"><defs><style type="text/css"></style></defs><path d="M783.691776 256c-22.188032 0-43.507712 22.9888-43.507712 51.2v230.402048c0 14.129152-0.256 25.597952-11.368448 25.597952-11.116544 0-11.3664-11.4688-11.3664-25.597952V153.6c0-28.2112-26.843136-51.2-49.025024-51.2-22.188032 0-49.027072 22.9888-49.027072 51.2v332.8c0 14.133248-0.260096 25.6-11.370496 25.6-11.112448 0-9.089024-11.4688-9.089024-25.6V102.4c0-28.2112-29.118464-51.2-51.304448-51.2-22.183936 0-50.16576 22.9888-50.16576 51.2v384c0 14.133248 0.884736 25.6-10.22976 25.6-11.1104 0-11.364352-11.4688-11.364352-25.6V153.6c0-28.2112-21.323776-51.2-43.507712-51.2-22.188032 0-45.78304 22.9888-45.78304 51.2v400.023552c0 34.203648 1.171456 54.171648-14.534656 59.240448-15.661056 5.0688-30.11584-7.4752-42.958848-37.3248L266.24 437.0432c-0.079872-0.1536-0.159744-0.3584-0.239616-0.512-5.199872-12.0832-13.613056-20.6848-23.638016-24.1664-9.424896-3.227648-19.204096-1.536-27.580416 4.864-18.601984 14.1824-25.769984 47.9232-15.663104 73.6768 0.043008 0.049152 0.043008 0.1024 0.079872 0.2048 0.243712 0.616448 25.327616 65.998848 106.940416 273.5616 41.59488 105.8816 80.726016 156.977152 106.20928 181.248 25.56928 24.32 42.520576 26.7264 44.089344 26.88h191.809536c64.581632 0 105.252864-68.913152 127.956992-126.6688 34.828288-88.578048 53.229568-212.942848 53.229568-359.733248h0.04096V307.2c0-28.2112-23.601152-51.2-45.78304-51.2z" fill="#13227a" p-id="11755"></path></svg>