<?xml version="1.0" standalone="no"?><!DOCTYPE svg PUBLIC "-//W3C//DTD SVG 1.1//EN" "http://www.w3.org/Graphics/SVG/1.1/DTD/svg11.dtd"><svg t="1573544348735" class="icon" viewBox="0 0 1024 1024" version="1.1" xmlns="http://www.w3.org/2000/svg" p-id="5207" xmlns:xlink="http://www.w3.org/1999/xlink" width="200" height="200"><defs><style type="text/css"></style></defs><path d="M507.89888 909.10208c33.19808 0 66.40128-4.10112 99.59936-12.40064-4.10112-8.29952-12.40064-12.40064-24.89856-8.29952 12.40064-58.10176 20.70016-87.10144 45.59872-112 16.59904-12.40064 24.89856-33.19808 12.40064-49.80224-8.29952-12.40064-24.89856-20.70016-37.2992-16.59904-24.89856 4.10112-8.29952-28.99968-28.99968-33.19808-20.70016-4.10112-49.80224-45.59872-78.80192-58.10176-16.59904-8.29952-33.19808-28.99968-58.10176-28.99968-20.70016 0-53.89824 20.70016-53.89824 4.10112 0-49.80224-4.10112-83.00032-4.10112-99.59936 0-12.40064-8.29952-4.10112 24.89856-4.10112 16.59904 0 8.29952-33.19808 24.89856-33.19808s53.89824 16.59904 62.19776 8.29952c8.29952-4.10112 66.40128 149.4016 66.40128 24.89856 0-16.59904-8.29952-41.4976 0-53.89824 20.70016-33.19808 41.4976-70.5024 58.10176-107.89888-16.59904-4.10112-37.2992-4.10112-53.89824 0-8.29952 4.10112 4.10112 16.59904-8.29952 16.59904-41.4976 8.29952-78.80192-12.40064-66.40128-33.19808 12.40064-20.70016 62.19776-8.29952 66.40128-49.80224 4.10112-24.89856 4.10112-49.80224 4.10112-70.5024 53.89824 8.29952 49.80224-62.19776-20.70016-78.80192h-20.70016c-190.8992 0-352.70144 132.80256-390.09792 319.49824 16.59904 16.59904 45.59872 16.59904 58.10176-4.10112-4.10112-4.10112-4.10112-4.10112 0-8.29952 16.59904 12.40064 41.4976 12.40064 41.4976 33.19808 0 70.5024 4.10112 145.19808 66.40128 145.19808 24.89856 8.29952 41.4976 28.99968 49.80224 53.89824 4.10112 16.59904 28.99968 0 49.80224 0 12.40064 0 0 20.70016 0 62.19776s95.40096 112 95.40096 112c0 24.89856 0 45.59872 4.10112 70.5024-12.40064 0-28.99968 0-41.4976 4.10112 20.68992 8.30976 37.28896 8.30976 57.98912 8.30976z m373.49888-531.2s-4.10112 0-4.10112-4.10112c-24.89856-66.40128-87.10144-16.59904-66.40128 37.2992-116.1984 87.10144-83.00032 149.4016-45.59872 182.59968 20.70016 20.70016 37.2992 41.4976 49.80224 66.40128-12.40064 33.19808 37.2992 24.89856 70.5024-24.89856 16.59904-41.4976 20.70016-87.10144 20.70016-132.80256V465.1008c0-8.29952 0-16.59904-4.10112-20.70016-4.1984-16.70144-12.49792-41.6-20.80256-66.49856z" fill="#10376B" p-id="5208"></path><path d="M512.1024 946.49856c-240.70144 0-435.70176-195.00032-435.70176-435.70176s195.00032-435.79904 435.70176-435.79904 435.70176 195.00032 435.70176 435.70176-195.00544 435.79904-435.70176 435.79904z m0-829.99808c-215.79776 0-394.19904 178.40128-394.19904 394.19904s178.40128 394.30144 394.19904 394.30144 394.19904-178.40128 394.19904-394.19904-178.40128-394.30144-394.19904-394.30144z" fill="#10376B" p-id="5209"></path></svg>