<?xml version="1.0" standalone="no"?><!DOCTYPE svg PUBLIC "-//W3C//DTD SVG 1.1//EN" "http://www.w3.org/Graphics/SVG/1.1/DTD/svg11.dtd"><svg t="1575694472742" class="icon" viewBox="0 0 1024 1024" version="1.1" xmlns="http://www.w3.org/2000/svg" p-id="29768" xmlns:xlink="http://www.w3.org/1999/xlink" width="200" height="200"><defs><style type="text/css"></style></defs><path d="M776.9 807.2c-7.7 0-15.4-2.9-21.2-8.8L553.1 595.9c-11.7-11.7-11.7-30.7 0-42.4s30.7-11.7 42.4 0L798.1 756c11.7 11.7 11.7 30.7 0 42.4-5.8 5.9-13.5 8.8-21.2 8.8z" fill="#0000FF" p-id="29769"></path><path d="M416 649.4c-63 0-122.3-24.5-166.9-69.1-44.5-44.6-69.1-103.8-69.1-166.9 0-63 24.5-122.3 69.1-166.9 11.7-11.7 30.7-11.7 42.4 0s11.7 30.7 0 42.4c-33.2 33.2-51.5 77.4-51.5 124.4s18.3 91.2 51.5 124.4c68.6 68.6 180.3 68.6 248.9 0 11.7-11.7 30.7-11.7 42.4 0s11.7 30.7 0 42.4c-44.5 44.8-103.7 69.3-166.8 69.3z" fill="#FF00FF" p-id="29770"></path><path d="M561.7 589.1c-7.7 0-15.4-2.9-21.2-8.8-11.7-11.7-11.7-30.7 0-42.4 68.6-68.6 68.6-180.3 0-248.9-33.2-33.2-77.4-51.5-124.4-51.5s-91.2 18.3-124.4 51.5c-11.7 11.7-30.7 11.7-42.4 0s-11.7-30.7 0-42.4C293.7 202 353 177.5 416 177.5c63 0 122.3 24.5 166.9 69.1 44.6 44.6 69.1 103.8 69.1 166.9s-24.5 122.3-69.1 166.9c-5.9 5.8-13.5 8.7-21.2 8.7z" fill="#FFFF00" p-id="29771"></path><path d="M258.387625 279.484402a15 15 0 1 0 21.212833-21.213574 15 15 0 1 0-21.212833 21.213574Z" fill="#FFFFFF" p-id="29772"></path><path d="M550.260014 571.439746a15 15 0 1 0 21.212834-21.213573 15 15 0 1 0-21.212834 21.213573Z" fill="#FFFFFF" p-id="29773"></path><path d="M766.882926 788.107059a15 15 0 1 0 21.212834-21.213574 15 15 0 1 0-21.212834 21.213574Z" fill="#FFFFFF" p-id="29774"></path></svg>