<?xml version="1.0" standalone="no"?><!DOCTYPE svg PUBLIC "-//W3C//DTD SVG 1.1//EN" "http://www.w3.org/Graphics/SVG/1.1/DTD/svg11.dtd"><svg t="1575692156064" class="icon" viewBox="0 0 1024 1024" version="1.1" xmlns="http://www.w3.org/2000/svg" p-id="22181" xmlns:xlink="http://www.w3.org/1999/xlink" width="200" height="200"><defs><style type="text/css"></style></defs><path d="M669.5 222.3l165.2 165.2-165.2 165.3v-86.1L594 480.5c-83.5 15.3-172.1 56.9-245 98.6 19.8-63 55.3-117.3 106.1-161.9 58.5-51.4 124.8-79.6 170.1-94.2l44.4-14.3v-86.4M637.7 113c-16.4 0-32.2 12.8-32.2 32.1v117c-98.5 31.7-303.7 127.4-335 378.6-2.6 20.5 13.8 36.2 31.8 36.2 5.7 0 11.7-1.6 17.2-5.1 66-42.4 182.6-109.3 286.1-128.4V630c0 19.3 15.8 32.1 32.2 32.1 7.9 0 15.9-2.9 22.4-9.4l242.5-242.5c12.5-12.5 12.5-32.7 0-45.2L660.1 122.4c-6.5-6.5-14.5-9.4-22.4-9.4z" fill="#E04DFF" p-id="22182"></path><path d="M768 705v112c0 17.6-14.4 32-32 32H208c-17.6 0-32-14.4-32-32V289c0-17.6 14.4-32 32-32h204c17.7 0 32-14.3 32-32s-14.3-32-32-32H208c-52.8 0-96 43.2-96 96v528c0 52.8 43.2 96 96 96h528c52.8 0 96-43.2 96-96V705c0-17.7-14.3-32-32-32s-32 14.3-32 32z" fill="#691FFF" p-id="22183"></path></svg>