<?xml version="1.0" standalone="no"?><!DOCTYPE svg PUBLIC "-//W3C//DTD SVG 1.1//EN" "http://www.w3.org/Graphics/SVG/1.1/DTD/svg11.dtd"><svg t="1575699598751" class="icon" viewBox="0 0 1024 1024" version="1.1" xmlns="http://www.w3.org/2000/svg" p-id="36659" xmlns:xlink="http://www.w3.org/1999/xlink" width="200" height="200"><defs><style type="text/css"></style></defs><path d="M703.980006 738.424714h-91.145716a54.840984 54.840984 0 1 0 0 109.681969h91.145716v91.145716a54.840984 54.840984 0 1 0 109.681969 0V848.143244h91.182276a54.840984 54.840984 0 1 0 0-109.681969H813.625414v-91.182277a54.840984 54.840984 0 1 0-109.681969 0v91.182277z m134.067926-191.906884l114.72734-103.905385c59.813234-54.182893 43.214696-105.660297-36.853142-115.239189l-266.161577-31.698089-106.025903-239.947587c-32.575545-73.852526-85.551936-73.962208-118.237163 0L319.544706 295.675167l-244.956397 30.710951c-80.470004 10.127302-98.421287 63.908027-40.472647 120.174877l183.388252 178.160078-56.522775 279.323414c-15.940446 78.861335 26.689279 108.438906 95.386753 65.809181l228.248176-141.782225 5.776584 3.400141a128.108539 128.108539 0 0 1 122.441638-166.168182h18.024403v-18.060965a127.962297 127.962297 0 0 1 207.189239-100.724607z" fill="#d4237a" p-id="36660"></path></svg>