<?xml version="1.0" standalone="no"?><!DOCTYPE svg PUBLIC "-//W3C//DTD SVG 1.1//EN" "http://www.w3.org/Graphics/SVG/1.1/DTD/svg11.dtd"><svg t="1575692084950" class="icon" viewBox="0 0 1575 1024" version="1.1" xmlns="http://www.w3.org/2000/svg" p-id="19577" xmlns:xlink="http://www.w3.org/1999/xlink" width="307.6171875" height="200"><defs><style type="text/css"></style></defs><path d="M1291.815385 307.2c7.876923 31.507692 7.876923 55.138462 0 70.892308-7.876923 31.507692-39.384615 55.138462-78.769231 55.138461-47.261538 0-78.769231-39.384615-78.769231-78.769231 0-15.753846 0-31.507692 7.876923-39.384615 7.876923-23.630769 31.507692-31.507692 55.138462-39.384615-63.015385-133.907692-252.061538-236.307692-409.6-236.307693-181.169231 0-346.584615 102.4-425.353846 267.815385C173.292308 315.076923 15.753846 464.738462 15.753846 661.661538c0 118.153846 55.138462 212.676923 141.784616 275.692308l55.138461 39.384616c-7.876923-23.630769-7.876923-55.138462-7.876923-86.646154 7.876923-47.261538 47.261538-78.769231 86.646154-78.769231 47.261538 0 86.646154 39.384615 86.646154 86.646154 0 15.753846 0 23.630769-7.876923 39.384615-23.630769 39.384615-47.261538 55.138462-78.769231 63.015385H1189.415385c196.923077 0 362.338462-157.538462 362.338461-346.584616 7.876923-149.661538-86.646154-291.446154-259.938461-346.584615z m-929.476923 472.615385c-15.753846-15.753846-39.384615-15.753846-63.015385-15.753847-63.015385 0-110.276923 39.384615-133.907692 94.523077C110.276923 803.446154 78.769231 732.553846 78.769231 653.784615c0-157.538462 133.907692-283.569231 291.446154-283.56923h31.507692l7.876923-23.63077C480.492308 196.923077 630.153846 102.4 787.692308 102.4c133.907692 0 259.938462 63.015385 330.830769 173.292308-15.753846 23.630769-31.507692 47.261538-31.507692 78.76923s15.753846 70.892308 39.384615 86.646154L1024 606.523077c-15.753846-7.876923-39.384615-15.753846-55.138462-15.753846-47.261538 0-86.646154 23.630769-118.153846 55.138461l-149.661538-63.015384c0-7.876923 7.876923-23.630769 7.876923-31.507693 0-78.769231-63.015385-141.784615-141.784615-141.784615-78.769231-7.876923-149.661538 63.015385-149.661539 141.784615 0 39.384615 15.753846 78.769231 39.384615 102.4L362.338462 779.815385z m685.292307-47.261539c0 47.261538-39.384615 86.646154-86.646154 86.646154-47.261538 0-86.646154-39.384615-86.646153-86.646154 0-47.261538 39.384615-86.646154 86.646153-86.646154 47.261538 7.876923 86.646154 39.384615 86.646154 86.646154zM645.907692 551.384615c0 39.384615-39.384615 78.769231-78.76923 78.769231-47.261538 0-86.646154-39.384615-86.646154-78.769231 0-47.261538 39.384615-86.646154 86.646154-86.646153 39.384615 0 78.769231 39.384615 78.76923 86.646153z m551.384616 385.969231H433.230769v-31.507692c0-39.384615-15.753846-70.892308-39.384615-94.523077l102.4-126.030769c15.753846 7.876923 39.384615 15.753846 63.015384 15.753846 47.261538 0 94.523077-23.630769 118.153847-63.015385l141.784615 63.015385c-7.876923 15.753846-7.876923 23.630769-7.876923 39.384615 0 78.769231 63.015385 141.784615 141.784615 141.784616s141.784615-63.015385 141.784616-141.784616c0-39.384615-15.753846-78.769231-47.261539-102.4L1157.907692 472.615385h63.015385c55.138462 0 94.523077-31.507692 118.153846-78.769231 94.523077 47.261538 157.538462 141.784615 157.538462 259.938461 0 157.538462-133.907692 283.569231-299.323077 283.569231z" fill="#409EFF" p-id="19578"></path></svg>