<?xml version="1.0" standalone="no"?><!DOCTYPE svg PUBLIC "-//W3C//DTD SVG 1.1//EN" "http://www.w3.org/Graphics/SVG/1.1/DTD/svg11.dtd"><svg t="1575691714913" class="icon" viewBox="0 0 1024 1024" version="1.1" xmlns="http://www.w3.org/2000/svg" p-id="13413" xmlns:xlink="http://www.w3.org/1999/xlink" width="200" height="200"><defs><style type="text/css"></style></defs><path d="M768 70.4H256L0 512l256 441.6h512L1024 512l-256-441.6z m-25.6 844.8H281.6L51.2 512l230.4-403.2h460.8L972.8 512l-230.4 403.2z m-38.4-384c-12.8 0-32 6.4-44.8 12.8L505.6 454.4c6.4-12.8 6.4-19.2 6.4-32 0-6.4 0-19.2-6.4-25.6l108.8-51.2c12.8 12.8 25.6 19.2 44.8 19.2 38.4 0 64-25.6 64-64s-25.6-64-64-64-64 25.6-64 64v6.4l-108.8 51.2c-19.2-25.6-44.8-44.8-83.2-44.8-57.6 0-108.8 44.8-108.8 108.8 0 44.8 25.6 83.2 70.4 102.4l-12.8 89.6c-32 6.4-51.2 32-51.2 64 0 38.4 25.6 64 64 64s64-25.6 64-64c0-25.6-12.8-44.8-32-57.6l12.8-96c32 0 57.6-12.8 76.8-38.4L640 582.4v12.8c0 38.4 25.6 64 64 64s64-25.6 64-64-25.6-64-64-64z" p-id="13414" fill="#2e8b57"></path></svg>