<?xml version="1.0" standalone="no"?><!DOCTYPE svg PUBLIC "-//W3C//DTD SVG 1.1//EN" "http://www.w3.org/Graphics/SVG/1.1/DTD/svg11.dtd"><svg t="1575690334871" class="icon" viewBox="0 0 1024 1024" version="1.1" xmlns="http://www.w3.org/2000/svg" p-id="7501" xmlns:xlink="http://www.w3.org/1999/xlink" width="200" height="200"><defs><style type="text/css"></style></defs><path d="M512 462.367347c-10.971429 0-19.853061-8.881633-19.853061-19.853061V333.322449c0-10.971429 8.881633-19.853061 19.853061-19.853061s19.853061 8.881633 19.853061 19.853061v109.191837c0 10.971429-8.881633 19.853061-19.853061 19.853061z" fill="#568289" p-id="7502"></path><path d="M512 809.795918c-10.971429 0-19.853061-8.881633-19.853061-19.853061v-148.897959c0-10.971429 8.881633-19.853061 19.853061-19.853061s19.853061 8.881633 19.853061 19.853061v148.897959c0 10.971429-8.881633 19.853061-19.853061 19.853061z" fill="#568289" p-id="7503"></path><path d="M594.546939 506.253061c-7.314286 0-14.106122-4.179592-17.763266-10.971428-4.702041-9.926531-1.044898-21.942857 8.881633-26.644898l151.510204-75.232653c9.926531-4.702041 21.942857-1.044898 26.644898 8.881632 4.702041 9.926531 1.044898 21.942857-8.881632 26.644898l-151.510205 75.232653c-3.134694 1.567347-5.746939 2.089796-8.881632 2.089796z" fill="#568289" p-id="7504"></path><path d="M428.930612 506.253061c-3.134694 0-5.746939-0.522449-8.881632-2.089796l-151.510204-75.232653c-9.926531-4.702041-13.583673-16.718367-8.881633-26.644898 4.702041-9.926531 16.718367-13.583673 26.644898-8.881632l151.510204 75.232653c9.926531 4.702041 13.583673 16.718367 8.881633 26.644898-3.657143 7.314286-10.44898 10.971429-17.763266 10.971428z" fill="#568289" p-id="7505"></path><path d="M708.440816 699.559184c-3.657143 0-7.314286-1.044898-10.971428-3.134694L579.918367 619.102041c-9.404082-6.269388-11.493878-18.285714-5.746938-27.689796 6.269388-9.404082 18.285714-11.493878 27.689795-5.746939l117.551021 77.322449c9.404082 6.269388 11.493878 18.285714 5.746939 27.689796-4.179592 5.746939-10.44898 8.881633-16.718368 8.881633z" fill="#568289" p-id="7506"></path><path d="M315.036735 699.559184c-6.269388 0-13.061224-3.134694-16.718368-8.881633-6.269388-9.404082-3.657143-21.420408 5.746939-27.689796l117.551021-77.322449c9.404082-6.269388 21.420408-3.657143 27.689795 5.746939 6.269388 9.404082 3.657143 21.420408-5.746938 27.689796l-117.551021 77.322449c-3.657143 2.089796-7.314286 3.134694-10.971428 3.134694z" fill="#568289" p-id="7507"></path><path d="M512 660.897959c-65.828571 0-119.118367-53.289796-119.118367-119.118367S446.171429 422.661224 512 422.661224s119.118367 53.289796 119.118367 119.118368-53.289796 119.118367-119.118367 119.118367zM512 353.17551c-65.828571 0-119.118367-53.289796-119.118367-119.118367S446.171429 114.938776 512 114.938776s119.118367 53.289796 119.118367 119.118367S577.828571 353.17551 512 353.17551zM789.942857 859.428571c-65.828571 0-119.118367-53.289796-119.118367-119.118367s53.289796-119.118367 119.118367-119.118367 119.118367 53.289796 119.118367 119.118367-53.289796 119.118367-119.118367 119.118367zM234.057143 859.428571c-65.828571 0-119.118367-53.289796-119.118367-119.118367s53.289796-119.118367 119.118367-119.118367 119.118367 53.289796 119.118367 119.118367-53.289796 119.118367-119.118367 119.118367z" fill="#16C4AF" p-id="7508"></path><path d="M512 909.061224c-38.138776 0-69.485714-31.346939-69.485714-69.485714s31.346939-69.485714 69.485714-69.485714 69.485714 31.346939 69.485714 69.485714-31.346939 69.485714-69.485714 69.485714zM789.942857 457.142857c-38.138776 0-69.485714-31.346939-69.485714-69.485714s31.346939-69.485714 69.485714-69.485714 69.485714 31.346939 69.485714 69.485714-31.346939 69.485714-69.485714 69.485714zM234.057143 457.142857c-38.138776 0-69.485714-31.346939-69.485714-69.485714s31.346939-69.485714 69.485714-69.485714 69.485714 31.346939 69.485714 69.485714-31.346939 69.485714-69.485714 69.485714z" fill="#F2CB51" p-id="7509"></path></svg>