<?xml version="1.0" standalone="no"?><!DOCTYPE svg PUBLIC "-//W3C//DTD SVG 1.1//EN" "http://www.w3.org/Graphics/SVG/1.1/DTD/svg11.dtd"><svg t="1573090420872" class="icon" viewBox="0 0 1024 1024" version="1.1" xmlns="http://www.w3.org/2000/svg" p-id="2707" xmlns:xlink="http://www.w3.org/1999/xlink" width="200" height="200"><defs><style type="text/css"></style></defs><path d="M512 512m-448 0a448 448 0 1 0 896 0 448 448 0 1 0-896 0Z" fill="#FF8E61" p-id="2708"></path><path d="M427.3 711.1H334c-12.9 0.1-23.7-9.7-24.9-22.6l-8.3-93c-0.4-4.6 1.2-9.3 4.3-12.7L574.8 288c4.5-4.9 10.7-7.8 17.3-8.1 6.6-0.3 13 2 17.9 6.5l97.8 89.7c4.9 4.5 7.8 10.7 8.1 17.3 0.3 6.6-2 13-6.5 17.9L439.7 705.6c-3.2 3.5-7.7 5.5-12.4 5.5z" fill="#FFFFFF" p-id="2709"></path><path d="M548.598 364.746l22.434-24.475 85.589 78.449-22.434 24.475z" fill="#FF4444" p-id="2710"></path><path d="M359.353 596.193l179.399-195.726 12.237 11.216L371.591 607.41zM408.311 640.999L587.71 445.272l12.238 11.217-179.398 195.726z" fill="#0099EE" p-id="2711"></path><path d="M495.4 677.9h165.9v33.2H495.4z" fill="#FFC7B0" p-id="2712"></path></svg>